<svg xmlns="http://www.w3.org/2000/svg" width="1200" height="1600" viewBox="0 0 1200 1600">
  <defs>
    <linearGradient id="fondo" x1="0" y1="0" x2="1" y2="1"><stop offset="0" stop-color="#073b3a"/><stop offset=".6" stop-color="#12665f"/><stop offset="1" stop-color="#082a35"/></linearGradient>
    <pattern id="reticula" width="60" height="60" patternUnits="userSpaceOnUse"><path d="M60 0H0V60" fill="none" stroke="#b7e1dc" stroke-opacity=".10" stroke-width="2"/></pattern>
  </defs>
  <rect width="1200" height="1600" fill="url(#fondo)"/><rect width="1200" height="1600" fill="url(#reticula)"/>
  <g fill="none" stroke-width="6"><circle cx="935" cy="280" r="190" stroke="#efc75e" opacity=".8"/><circle cx="935" cy="280" r="125" stroke="#96d4ca" opacity=".7"/><path d="M745 280h380M935 90v380" stroke="#d8ece9" opacity=".34"/></g>
  <path d="M100 1110 C250 820 395 1290 560 985 S825 1110 1090 730" fill="none" stroke="#f0c654" stroke-width="10"/>
  <g fill="#e8f5f2" stroke="#e8f5f2"><circle cx="265" cy="965" r="12"/><circle cx="470" cy="1115" r="12"/><circle cx="645" cy="920" r="12"/><circle cx="820" cy="1012" r="12"/><circle cx="1010" cy="805" r="12"/></g>
  <text x="90" y="170" fill="#f0c654" font-family="DejaVu Sans, sans-serif" font-size="34" letter-spacing="5">LIBRO ABIERTO · EDICIÓN INTERACTIVA</text>
  <text x="90" y="400" fill="white" font-family="DejaVu Sans, sans-serif" font-size="84" font-weight="700">Álgebra Superior</text>
  <text x="90" y="495" fill="white" font-family="DejaVu Sans, sans-serif" font-size="54" font-weight="700">con aplicaciones en R y GeoGebra</text>
  <rect x="92" y="555" width="185" height="8" fill="#f0c654"/>
  <text x="90" y="635" fill="#d5ece8" font-family="DejaVu Sans, sans-serif" font-size="39">Teoría, visualización y experimentación</text>
  <text x="90" y="1370" fill="white" font-family="DejaVu Sans, sans-serif" font-size="39" font-weight="600">Jesús Gilberto Rodríguez Escobedo</text>
  <text x="90" y="1430" fill="#b9dcd6" font-family="DejaVu Sans, sans-serif" font-size="28">Primera edición digital · San Luis Potosí, México · 2026</text>
  <text x="90" y="1500" fill="#f0c654" font-family="DejaVu Sans, sans-serif" font-size="25">MANUAL → R → GEOGEBRA → INTERPRETACIÓN</text>
</svg>
